HIERARCHY
ROOT Hips
{
	OFFSET 51.962399 -42.087715 101.174995
	CHANNELS 6 Xposition Yposition Zposition Xrotation Yrotation Zrotation
	JOINT spine
	{
		OFFSET 0.000000 -0.507027 8.817047
		CHANNELS 3 Xrotation Yrotation Zrotation
		JOINT spine1
		{
			OFFSET 0.000000 0.000000 10.776596
			CHANNELS 3 Xrotation Yrotation Zrotation
			JOINT spine2
			{
				OFFSET 0.000000 -0.000004 10.325905
				CHANNELS 3 Xrotation Yrotation Zrotation
				JOINT Neck
				{
					OFFSET 0.000000 -1.263954 26.511002
					CHANNELS 3 Xrotation Yrotation Zrotation
					JOINT Head
					{
						OFFSET 0.000000 0.000000 8.009659
						CHANNELS 3 Xrotation Yrotation Zrotation
						End Site
						{
							OFFSET 0.000000 6.393856 19.387894
						}
					}
				}
				JOINT RightShoulder
				{
					OFFSET -4.347950 0.605423 11.151199
					CHANNELS 3 Xrotation Yrotation Zrotation
					JOINT RightArm
					{
						OFFSET 0.000000 -0.000004 14.625793
						CHANNELS 3 Xrotation Yrotation Zrotation
						JOINT RightArmRoll
						{
							OFFSET 0.000000 0.000000 7.383408
							CHANNELS 3 Xrotation Yrotation Zrotation
							JOINT RightForeArm
							{
								OFFSET 0.000000 -0.000004 21.505203
								CHANNELS 3 Xrotation Yrotation Zrotation
								JOINT RightForeArmRoll
								{
									OFFSET 0.000000 0.000000 8.285324
									CHANNELS 3 Xrotation Yrotation Zrotation
									JOINT RightHand
									{
										OFFSET 0.000000 -0.000004 16.626801
										CHANNELS 3 Xrotation Yrotation Zrotation
										End Site
										{
											OFFSET 0.000000 0.000000 0.100006
										}
									}
								}
							}
						}
					}
				}
				JOINT LeftShoulder
				{
					OFFSET 4.347950 0.605423 11.151199
					CHANNELS 3 Xrotation Yrotation Zrotation
					JOINT LeftArm
					{
						OFFSET 0.000000 -0.000004 14.625793
						CHANNELS 3 Xrotation Yrotation Zrotation
						JOINT LeftArmRoll
						{
							OFFSET 0.000000 0.000000 7.383408
							CHANNELS 3 Xrotation Yrotation Zrotation
							JOINT LeftForeArm
							{
								OFFSET 0.000000 -0.000004 21.505203
								CHANNELS 3 Xrotation Yrotation Zrotation
								JOINT LeftForeArmRoll
								{
									OFFSET 0.000000 0.000000 8.285324
									CHANNELS 3 Xrotation Yrotation Zrotation
									JOINT LeftHand
									{
										OFFSET 0.000000 -0.000004 16.626801
										CHANNELS 3 Xrotation Yrotation Zrotation
										End Site
										{
											OFFSET 0.000000 0.000000 0.100006
										}
									}
								}
							}
						}
					}
				}
			}
		}
	}
	JOINT RightUpLeg
	{
		OFFSET -7.815102 1.202171 -1.433090
		CHANNELS 3 Xrotation Yrotation Zrotation
		JOINT RightUpLegRoll
		{
			OFFSET 0.000000 -0.000004 19.495895
			CHANNELS 3 Xrotation Yrotation Zrotation
			JOINT RightLeg
			{
				OFFSET 0.000000 0.000004 -24.142700
				CHANNELS 3 Xrotation Yrotation Zrotation
				JOINT RightLegRoll
				{
					OFFSET 0.000000 -0.000004 24.221703
					CHANNELS 3 Xrotation Yrotation Zrotation
					JOINT RightFoot
					{
						OFFSET 0.000000 -0.000004 20.160507
						CHANNELS 3 Xrotation Yrotation Zrotation
						JOINT RightToeBase
						{
							OFFSET 0.000000 -0.000004 16.853195
							CHANNELS 3 Xrotation Yrotation Zrotation
							End Site
							{
								OFFSET 0.007145 0.940781 8.161865
							}
						}
					}
				}
			}
		}
	}
	JOINT LeftUpLeg
	{
		OFFSET 7.815102 1.202171 -1.433090
		CHANNELS 3 Xrotation Yrotation Zrotation
		JOINT LeftUpLegRoll
		{
			OFFSET 0.000000 -0.000004 19.496002
			CHANNELS 3 Xrotation Yrotation Zrotation
			JOINT LeftLeg
			{
				OFFSET 0.000000 -0.000004 24.142601
				CHANNELS 3 Xrotation Yrotation Zrotation
				JOINT LeftLegRoll
				{
					OFFSET 0.000000 -0.000004 24.445602
					CHANNELS 3 Xrotation Yrotation Zrotation
					JOINT LeftFoot
					{
						OFFSET 0.000000 -0.000004 19.936600
						CHANNELS 3 Xrotation Yrotation Zrotation
						JOINT LeftToeBase
						{
							OFFSET 0.000000 -0.000004 16.853195
							CHANNELS 3 Xrotation Yrotation Zrotation
							End Site
							{
								OFFSET -0.032013 0.940781 8.161865
							}
						}
					}
				}
			}
		}
	}
}
MOTION
Frames: 9
Frame Time: 0.041667
52.614502 -23.565111 83.559586 26.873205 0.962831 0.645719 1.708638 -0.400055 0.129500 7.421224 -0.791577 0.276213 9.066395 -0.788250 0.285776 -9.449121 6.915973 0.771586 1.400542 2.124095 -0.965583 -3.700735 -56.561025 -4.167150 -67.725970 -148.469010 -72.252699 -0.000003 -0.000020 0.000002 11.122579 -19.900243 1.770287 0.000002 0.000011 -3.004199 -4.999625 -7.998730 0.000024 -7.018961 59.599227 8.368913 -67.805890 147.254671 74.720746 -0.000000 0.000000 -0.000003 12.680241 15.054051 -1.149988 0.000014 -0.000008 3.003780 -4.999612 7.998710 -0.000002 -74.812380 -174.637405 -0.858550 -179.999991 0.000005 -0.672004 115.766734 -3.133187 -3.510196 -0.000003 -0.000005 1.046250 80.307438 6.492278 2.525338 25.558891 -7.347474 0.154566 -75.880137 174.150891 1.405792 -0.000021 -0.000004 -0.712347 -65.189784 2.165710 2.610365 -0.000002 0.000004 -1.255130 79.147952 -6.529000 -2.483831 25.985545 7.348353 -0.793940 
52.614105 -23.599716 83.727386 26.791603 0.953187 0.658899 1.700673 -0.398529 0.131102 7.405310 -0.788269 0.279168 9.050470 -0.784909 0.288697 -9.451350 6.861779 0.748013 1.419601 2.174403 -0.984698 -3.630504 -56.551087 -4.082626 -67.704598 -148.528419 -72.032746 -0.000002 -0.000021 -0.000001 10.675300 -19.813067 1.691729 0.000001 0.000013 -3.004200 -4.999623 -7.998730 0.000023 -6.768947 59.662590 8.080041 -67.979807 147.361809 74.606785 -0.000001 -0.000000 0.000000 12.010077 14.922626 -1.058061 0.000012 -0.000008 3.003779 -4.999614 7.998709 -0.000001 -74.506313 -174.616955 -0.864269 -179.999991 0.000006 -0.671006 116.087780 -3.162313 -3.515197 0.000000 -0.000005 1.036870 80.178518 6.494416 2.526986 25.570603 -7.347462 0.172364 -75.564842 174.158977 1.406352 -0.000019 -0.000005 -0.711033 -64.852291 2.207143 2.626639 -0.000003 0.000004 -1.241730 79.028280 -6.532927 -2.479096 25.991308 7.348359 -0.802640 
52.618904 -23.636316 83.869789 26.709813 0.944073 0.672231 1.692656 -0.397171 0.132681 7.389297 -0.785339 0.282009 9.034459 -0.781947 0.291506 -9.453779 6.807892 0.725178 1.438153 2.223309 -1.002973 -3.574382 -56.537997 -4.014593 -67.670557 -148.588812 -71.803941 -0.000002 -0.000020 -0.000001 10.238255 -19.724813 1.615177 0.000001 0.000011 -3.004202 -4.999625 -7.998730 0.000022 -6.539278 59.717109 7.814493 -68.132694 147.476734 74.474996 0.000000 -0.000000 -0.000001 11.352027 14.783304 -0.966738 0.000012 -0.000008 3.003780 -4.999612 7.998713 0.000001 -74.199897 -174.595618 -0.869029 -179.999991 0.000005 -0.671006 116.408458 -3.192023 -3.519885 -0.000003 -0.000005 1.027600 80.049838 6.496721 2.528145 25.582431 -7.347451 0.190199 -75.249656 174.165985 1.406622 -0.000024 -0.000005 -0.709718 -64.515105 2.248754 2.642761 -0.000005 0.000004 -1.228390 78.908322 -6.536845 -2.474289 25.997063 7.348354 -0.811357 
52.612400 -23.658812 84.022385 26.627733 0.935589 0.685527 1.684602 -0.396023 0.134220 7.373182 -0.782873 0.284702 9.018337 -0.779451 0.294173 -9.456399 6.754959 0.703293 1.456024 2.270228 -1.020254 -3.535050 -56.521513 -3.966230 -67.622179 -148.651376 -71.565465 -0.000002 -0.000021 -0.000001 9.811591 -19.636471 1.540636 -0.000001 0.000012 -3.004201 -4.999625 -7.998731 0.000023 -6.337087 59.761348 7.580507 -68.258725 147.602765 74.320067 0.000000 0.000000 -0.000002 10.707986 14.636341 -0.876015 0.000013 -0.000009 3.003778 -4.999613 7.998712 -0.000000 -73.893085 -174.573720 -0.872458 -179.999991 0.000005 -0.669996 116.728561 -3.223253 -3.526050 -0.000004 -0.000005 1.018520 79.921840 6.499181 2.528782 25.594141 -7.347445 0.207922 -74.934709 174.171682 1.405951 -0.000022 -0.000004 -0.708403 -64.178343 2.290636 2.658798 -0.000005 0.000004 -1.215100 78.788063 -6.540733 -2.469707 26.002923 7.348354 -0.820131 
52.611603 -23.687410 84.193489 26.545252 0.927853 0.698614 1.676479 -0.395120 0.135708 7.356945 -0.780952 0.287215 9.002107 -0.777502 0.296665 -9.459190 6.703643 0.682566 1.473035 2.314515 -1.036378 -3.515199 -56.501661 -3.940723 -67.558494 -148.717001 -71.317741 -0.000002 -0.000021 0.000001 9.395209 -19.548831 1.467990 0.000001 0.000013 -3.004199 -4.999625 -7.998730 0.000021 -6.169654 59.794194 7.386489 -68.354409 147.741541 74.141164 0.000000 0.000000 -0.000002 10.079460 14.482043 -0.785709 0.000012 -0.000009 3.003778 -4.999614 7.998708 -0.000003 -73.586115 -174.551508 -0.875103 -179.999991 0.000004 -0.669996 117.048105 -3.255167 -3.531867 -0.000002 -0.000005 1.009700 79.794744 6.501988 2.528205 25.605657 -7.347442 0.225394 -74.620315 174.175520 1.404786 -0.000020 -0.000005 -0.707082 -63.842127 2.332911 2.674820 -0.000003 0.000004 -1.201850 78.667428 -6.544668 -2.465157 26.008681 7.348356 -0.828939 
52.611305 -23.717607 84.338196 26.462586 0.920983 0.711285 1.668287 -0.394502 0.137130 7.340571 -0.779663 0.289516 8.985730 -0.776185 0.298949 -9.462169 6.654591 0.663212 1.488993 2.355586 -1.051186 -3.517507 -56.478476 -3.941267 -67.477945 -148.787024 -71.060052 -0.000002 -0.000020 0.000001 8.989074 -19.462694 1.397122 0.000001 0.000013 -3.004199 -4.999625 -7.998730 0.000026 -6.044177 59.814173 7.240745 -68.415191 147.895452 73.935227 -0.000001 0.000000 -0.000001 9.468203 14.320418 -0.695629 0.000013 -0.000008 3.003777 -4.999614 7.998710 -0.000002 -73.278811 -174.529406 -0.876819 -179.999991 0.000005 -0.668999 117.367075 -3.287721 -3.538342 -0.000003 -0.000005 1.001230 79.668925 6.505199 2.526298 25.616872 -7.347458 0.242479 -74.306393 174.176873 1.403304 -0.000021 -0.000004 -0.705758 -63.506512 2.375657 2.690879 -0.000003 0.000004 -1.188640 78.546486 -6.548580 -2.460734 26.014637 7.348358 -0.837830 
52.614403 -23.752213 84.501099 26.379420 0.914937 0.724770 1.660120 -0.394214 0.138525 7.324230 -0.779105 0.291617 8.969391 -0.775627 0.301044 -9.464890 6.607314 0.644532 1.503790 2.393737 -1.065282 -3.547448 -56.445397 -3.973727 -67.370309 -148.865230 -70.779304 -0.000001 -0.000021 0.000001 8.591824 -19.373157 1.326976 -0.000000 0.000011 -3.004200 -4.999624 -7.998728 0.000025 -5.954120 59.821898 7.135605 -68.443126 148.067149 73.698301 -0.000000 0.000001 -0.000001 8.862269 14.145568 -0.604279 0.000010 -0.000009 3.003729 -4.999616 7.998710 0.000000 -72.971173 -174.505405 -0.876889 -179.999991 0.000005 -0.668998 117.685020 -3.322375 -3.545126 -0.000002 -0.000005 0.992909 79.543652 6.508640 2.523693 25.628285 -7.347459 0.259719 -73.992962 174.176941 1.400364 -0.000021 -0.000004 -0.704404 -63.171470 2.418946 2.707151 -0.000003 0.000004 -1.175410 78.424567 -6.552505 -2.456479 26.020697 7.348362 -0.846939 
52.609203 -23.780922 84.642792 26.295866 0.909563 0.740135 1.652019 -0.394248 0.139939 7.308050 -0.779256 0.293563 8.953204 -0.775824 0.302990 -9.467040 6.560718 0.625777 1.517552 2.429889 -1.079284 -3.605833 -56.397681 -4.038593 -67.231102 -148.952793 -70.468626 -0.000003 -0.000021 0.000001 8.202588 -19.275578 1.256967 0.000001 0.000011 -3.004203 -4.999627 -7.998726 0.000022 -5.886668 59.819726 7.056185 -68.445264 148.255690 73.431125 0.000000 0.000000 -0.000004 8.251147 13.952847 -0.511304 0.000014 -0.000008 3.003579 -4.999614 7.998711 -0.000002 -72.663029 -174.477852 -0.874065 -179.999991 0.000005 -0.668998 118.001476 -3.359593 -3.553089 -0.000001 -0.000005 0.984538 79.418113 6.511995 2.521303 25.640108 -7.347475 0.277659 -73.679662 174.176886 1.395707 -0.000019 -0.000005 -0.703002 -62.836449 2.462783 2.723650 -0.000003 0.000004 -1.162140 78.301302 -6.556413 -2.452309 26.026967 7.348362 -0.856377 
52.611702 -23.806814 84.817993 26.211718 0.904785 0.757058 1.643977 -0.394559 0.141366 7.291979 -0.780013 0.295372 8.937139 -0.776661 0.304806 -9.468816 6.514515 0.607073 1.530447 2.464393 -1.093063 -3.688302 -56.337910 -4.130959 -67.065204 -149.048224 -70.133093 -0.000002 -0.000021 -0.000000 7.821887 -19.171065 1.187570 0.000001 0.000012 -3.004199 -4.999625 -7.998728 0.000022 -5.839502 59.808497 6.999832 -68.425108 148.458301 73.138376 -0.000001 0.000000 -0.000000 7.638565 13.744274 -0.418097 0.000013 -0.000007 3.003361 -4.999614 7.998711 0.000001 -72.354578 -174.446966 -0.869922 -179.999991 0.000006 -0.668002 118.316799 -3.399035 -3.562307 -0.000004 -0.000005 0.976128 79.292165 6.515421 2.518952 25.652333 -7.347490 0.296182 -73.366798 174.176299 1.391268 -0.000021 -0.000005 -0.701563 -62.501572 2.507059 2.740267 -0.000003 0.000004 -1.148850 78.176829 -6.560320 -2.448319 26.033438 7.348367 -0.866079 
